<svg width="42" height="34" viewBox="0 0 42 34" fill="none" xmlns="http://www.w3.org/2000/svg">
<path d="M2.5 9.5V10H3H39H39.5V9.5V7.25C39.5 6.12283 39.0522 5.04183 38.2552 4.2448C37.4582 3.44777 36.3772 3 35.25 3H6.75C5.62283 3 4.54183 3.44777 3.7448 4.2448C2.94777 5.04183 2.5 6.12283 2.5 7.25V9.5ZM39.5 12.5V12H39H3H2.5V12.5V26.75C2.5 27.8772 2.94777 28.9582 3.7448 29.7552C4.54183 30.5522 5.62283 31 6.75 31H35.25C36.3772 31 37.4582 30.5522 38.2552 29.7552C39.0522 28.9582 39.5 27.8772 39.5 26.75V12.5ZM0.5 7.25C0.5 5.5924 1.15848 4.00268 2.33058 2.83058C3.50268 1.65848 5.0924 1 6.75 1H35.25C36.9076 1 38.4973 1.65848 39.6694 2.83058C40.8415 4.00268 41.5 5.5924 41.5 7.25V26.75C41.5 28.4076 40.8415 29.9973 39.6694 31.1694C38.4973 32.3415 36.9076 33 35.25 33H6.75C5.0924 33 3.50268 32.3415 2.33058 31.1694C1.15848 29.9973 0.5 28.4076 0.5 26.75V7.25ZM28.5 22H33C33.2652 22 33.5196 22.1054 33.7071 22.2929C33.8946 22.4804 34 22.7348 34 23C34 23.2652 33.8946 23.5196 33.7071 23.7071C33.5196 23.8946 33.2652 24 33 24H28.5C28.2348 24 27.9804 23.8946 27.7929 23.7071C27.6054 23.5196 27.5 23.2652 27.5 23C27.5 22.7348 27.6054 22.4804 27.7929 22.2929C27.9804 22.1054 28.2348 22 28.5 22Z" fill="#4CAF4F" stroke="#4CAF4F"/>
</svg>
